<?xml version="1.0" encoding="iso-8859-1"?>
<!-- Generator: Adobe Illustrator 19.0.0, SVG Export Plug-In . SVG Version: 6.00 Build 0)  -->
<svg xmlns="http://www.w3.org/2000/svg" xmlns:xlink="http://www.w3.org/1999/xlink" version="1.1" id="Layer_1" x="0px" y="0px" viewBox="0 0 512.01 512.01" style="enable-background:new 0 0 512.01 512.01;" xml:space="preserve" width="512px" height="512px">
<g>
	<g>
		<g>
			<path d="M435.204,68.277h-18.193l25.293-37.939c2.62-3.917,1.562-9.216-2.364-11.827c-3.934-2.62-9.233-1.553-11.836,2.364     l-34.133,51.2c-1.741,2.62-1.903,5.982-0.427,8.755c1.485,2.782,4.378,4.514,7.526,4.514h18.193l-25.293,37.931     c-2.62,3.917-1.553,9.225,2.364,11.836c1.459,0.964,3.106,1.434,4.727,1.434c2.756,0,5.47-1.34,7.108-3.806l34.133-51.2     c1.741-2.611,1.911-5.982,0.427-8.755S438.353,68.277,435.204,68.277z" fill="#263e4c"/>
			<path d="M127.987,273.068h0.017c4.702,0,8.516-3.814,8.533-8.516c0.009-3.678,1.178-90.317,79.718-118.921     c4.429-1.613,6.716-6.511,5.103-10.94c-1.613-4.42-6.519-6.716-10.94-5.094c-89.907,32.742-90.948,133.931-90.948,134.946     C119.471,269.245,123.285,273.06,127.987,273.068z" fill="#263e4c"/>
			<path d="M213.337,119.477h41.532l-7.33,58.675c-0.486,3.831,1.681,7.518,5.265,8.969c1.041,0.418,2.125,0.623,3.2,0.623     c2.628,0,5.18-1.212,6.827-3.413l76.8-102.4c1.946-2.586,2.253-6.05,0.811-8.943c-1.451-2.884-4.403-4.71-7.637-4.71h-41.532     l7.33-58.675c0.486-3.84-1.681-7.526-5.265-8.977c-3.593-1.451-7.697-0.316-10.027,2.799l-76.8,102.4     c-1.937,2.586-2.244,6.042-0.802,8.934C207.159,117.651,210.103,119.477,213.337,119.477z M277.687,39.366l-4.548,36.386     c-0.307,2.423,0.452,4.864,2.065,6.699c1.63,1.843,3.951,2.893,6.4,2.893h34.133l-47.283,63.036l4.548-36.378     c0.307-2.432-0.444-4.872-2.065-6.707c-1.621-1.835-3.951-2.884-6.4-2.884h-34.133L277.687,39.366z" fill="#263e4c"/>
			<path d="M146.291,98.263c1.596,2.671,4.42,4.147,7.322,4.147c1.493,0,3.012-0.393,4.386-1.22     c4.036-2.423,5.35-7.663,2.927-11.708l-25.6-42.667c-1.51-2.509-4.198-4.07-7.117-4.139c-2.978-0.282-5.675,1.365-7.304,3.797     l-9.967,14.95l-27.034-40.55c-2.611-3.917-7.91-4.983-11.836-2.364c-3.917,2.611-4.984,7.91-2.364,11.827l34.133,51.2     c3.166,4.753,11.034,4.753,14.199,0l9.583-14.379L146.291,98.263z" fill="#263e4c"/>
			<path d="M409.604,291.603v-44.126c0-35.422-19.618-102.4-93.867-102.4c-4.719,0-8.533,3.814-8.533,8.533     c0,4.71,3.814,8.533,8.533,8.533c75.657,0,76.791,81.86,76.8,85.333v51.2c0,4.71,3.814,8.533,8.533,8.533     c4.71,0,8.533,3.823,8.533,8.533v34.133c0,4.702-3.823,8.533-8.533,8.533c-3.558,0-6.741,2.202-7.987,5.538     c-0.256,0.674-25.455,67.635-41.779,92.126l-1.399,2.116c-10.223,15.505-24.235,36.753-76.834,36.753     s-66.603-21.248-76.834-36.753l-1.399-2.116c-16.324-24.491-41.523-91.452-41.771-92.126c-1.254-3.337-4.437-5.538-7.996-5.538     c-4.71,0-8.533-3.831-8.533-8.533v-34.133c0-2.313,0.93-4.412,2.423-5.956c3.396,7.62,10.607,14.49,23.177,14.49     c3.234,0,6.187-1.826,7.637-4.719c7.817-15.633,15.505-44.322,17.485-63.633c26.889-0.478,104.704-3.763,139.332-25.37     c7.851,30.319,33.05,55.825,34.313,57.088c3.337,3.328,8.738,3.328,12.066,0c3.337-3.336,3.337-8.738,0-12.066     c-0.316-0.316-31.633-31.983-31.633-62.234c0-3.84-2.56-7.202-6.255-8.226c-3.669-1.024-7.629,0.538-9.591,3.831     c-12.416,20.685-93.022,29.995-146.287,29.995c-4.719,0-8.533,3.814-8.533,8.533c0,13.85-6.545,41.506-13.508,58.539     c-2.722-1.638-3.49-4.693-3.558-7.339c0-4.719-3.814-8.533-8.533-8.533c-14.114,0-25.6,11.477-25.6,25.6v34.133     c0,11.981,8.286,22.076,19.439,24.849c6.221,16.196,26.795,68.412,41.728,90.812l1.348,2.048     c10.965,16.614,29.295,44.425,91.085,44.425s80.128-27.81,91.085-44.425l1.348-2.048c14.933-22.4,35.507-74.615,41.737-90.812     c11.145-2.773,19.43-12.868,19.43-24.849v-34.133C426.671,304.616,419.537,295.127,409.604,291.603z" fill="#263e4c"/>
			<path d="M315.737,349.877c4.719,0,8.533-3.823,8.533-8.533h8.533c4.719,0,8.533-3.823,8.533-8.533     c0-4.719-3.814-8.533-8.533-8.533h-34.133c-4.719,0-8.533,3.814-8.533,8.533c0,4.71,3.814,8.533,8.533,8.533h8.533     C307.204,346.054,311.018,349.877,315.737,349.877z" fill="#263e4c"/>
			<path d="M256.004,332.81c0-4.719-3.814-8.533-8.533-8.533h-34.133c-4.719,0-8.533,3.814-8.533,8.533     c0,4.71,3.814,8.533,8.533,8.533h8.533c0,4.71,3.814,8.533,8.533,8.533s8.533-3.823,8.533-8.533h8.533     C252.19,341.343,256.004,337.521,256.004,332.81z" fill="#263e4c"/>
			<path d="M273.071,443.743c20.028,0,30.507-9.907,31.633-11.034c3.294-3.294,3.285-8.568,0.051-11.913     c-3.251-3.345-8.619-3.439-12.015-0.256c-0.265,0.256-6.707,6.135-19.669,6.135c-12.774,0-19.209-5.717-19.652-6.118     c-3.319-3.251-8.67-3.226-11.981,0.085c-3.328,3.328-3.328,8.73,0,12.066C242.564,433.836,253.043,443.743,273.071,443.743z" fill="#263e4c"/>
		</g>
	</g>
</g>
<g>
</g>
<g>
</g>
<g>
</g>
<g>
</g>
<g>
</g>
<g>
</g>
<g>
</g>
<g>
</g>
<g>
</g>
<g>
</g>
<g>
</g>
<g>
</g>
<g>
</g>
<g>
</g>
<g>
</g>
</svg>
