<?xml version="1.0" encoding="UTF-8"?>
<svg width="480px" height="480px" viewBox="0 0 480 480" version="1.1" xmlns="http://www.w3.org/2000/svg" xmlns:xlink="http://www.w3.org/1999/xlink">
    <!-- Generator: Sketch 44 (41411) - http://www.bohemiancoding.com/sketch -->
    <title>briefcase</title>
    <desc>Created with Sketch.</desc>
    <defs></defs>
    <g id="Page-1" stroke="none" stroke-width="1" fill="none" fill-rule="evenodd">
        <g id="briefcase" fill-rule="nonzero" fill="#717C89">
            <path d="M464,300.392 L464,208 L464,160 L464,120 C464,97.944 446.056,80 424,80 L320,80 L320,40 C320,17.944 302.056,0 280,0 L184,0 C161.944,0 144,17.944 144,40 L144,80 L40,80 C17.944,80 0,97.944 0,120 L0,136 L0,208 L0,400 C0,422.056 17.944,440 40,440 L270.808,440 C292.792,464.488 324.576,480 360,480 C426.168,480 480,426.168 480,360 C480,338.296 474.12,317.976 464,300.392 Z M160,40 C160,26.768 170.768,16 184,16 L280,16 C293.232,16 304,26.768 304,40 L304,80 L288,80 L288,40 C288,35.584 284.424,32 280,32 L184,32 C179.576,32 176,35.584 176,40 L176,80 L160,80 L160,40 Z M272,48 L272,80 L192,80 L192,48 L272,48 Z M16,136 L16,120 C16,106.768 26.768,96 40,96 L424,96 C437.232,96 448,106.768 448,120 L448,160 L448,208 C448,230.056 430.056,248 408,248 L402.728,248 C389.432,242.912 375.064,240 360,240 C344.936,240 330.568,242.912 317.272,248 L280,248 L280,224 C280,219.584 276.424,216 272,216 L192,216 C187.576,216 184,219.584 184,224 L184,248 L104,248 L64,248 L56,248 C33.944,248 16,230.056 16,208 L16,136 Z M448,247.112 L448,278.688 C441.728,271.904 434.784,265.76 427.112,260.568 C435.064,257.664 442.192,253.056 448,247.112 Z M264,232 L264,248 L200,248 L200,232 L264,232 Z M96,264 L96,288 L72,288 L72,264 L96,264 Z M40,424 C26.768,424 16,413.232 16,400 L16,247.112 C26.176,257.52 40.336,264 56,264 L56,296 C56,300.416 59.576,304 64,304 L104,304 C108.424,304 112,300.416 112,296 L112,264 L192,264 L272,264 L288.304,264 C259.048,285.904 240,320.728 240,360 C240,383.536 246.912,405.448 258.672,424 L40,424 Z M463.592,368 C459.688,418.96 418.96,459.688 368,463.592 L368,448 L352,448 L352,463.592 C323.12,461.376 297.488,447.4 280,426.36 L280,424 L278.192,424 C265.888,408.304 258.016,389.04 256.4,368 L272,368 L272,352 L256.408,352 C260.312,301.04 301.04,260.312 352,256.408 L352,272 L368,272 L368,256.408 C418.96,260.312 459.688,301.04 463.592,352 L448,352 L448,368 L463.592,368 Z" id="Shape"></path>
            <path d="M368,356.688 L368,288 L352,288 L352,360 C352,362.12 352.84,364.16 354.344,365.656 L402.344,413.656 L413.656,402.344 L368,356.688 Z" id="Shape"></path>
            <rect id="Rectangle-path" x="352" y="208" width="16" height="16"></rect>
            <rect id="Rectangle-path" x="384" y="208" width="16" height="16"></rect>
            <rect id="Rectangle-path" x="320" y="208" width="16" height="16"></rect>
        </g>
    </g>
</svg>