<?xml version="1.0" encoding="UTF-8"?>
<svg width="470px" height="470px" viewBox="0 0 470 470" version="1.1" xmlns="http://www.w3.org/2000/svg" xmlns:xlink="http://www.w3.org/1999/xlink">
    <!-- Generator: Sketch 44 (41411) - http://www.bohemiancoding.com/sketch -->
    <title>cloud-computing</title>
    <desc>Created with Sketch.</desc>
    <defs></defs>
    <g id="Page-1" stroke="none" stroke-width="1" fill="none" fill-rule="evenodd">
        <g id="cloud-computing" fill-rule="nonzero" fill="#717C89">
            <path d="M202.5,405.883 L202.5,285.675 C202.5,281.532 199.143,278.175 195,278.175 L145,278.175 C140.857,278.175 137.5,281.532 137.5,285.675 C137.5,289.818 140.857,293.175 145,293.175 L187.5,293.175 L187.5,405.883 C173.185,409.279 162.5,422.161 162.5,437.5 C162.5,455.421 177.079,470 195,470 C212.921,470 227.5,455.421 227.5,437.5 C227.5,422.161 216.815,409.279 202.5,405.883 L202.5,405.883 Z M195,455 C185.351,455 177.5,447.149 177.5,437.5 C177.5,427.851 185.351,420 195,420 C204.649,420 212.5,427.851 212.5,437.5 C212.5,447.149 204.649,455 195,455 Z" id="Shape"></path>
            <path d="M282.5,405.883 L282.5,285.675 C282.5,281.532 279.143,278.175 275,278.175 L225.001,278.175 C220.858,278.175 217.501,281.532 217.501,285.675 C217.501,289.818 220.858,293.175 225.001,293.175 L267.5,293.175 L267.5,405.883 C253.185,409.279 242.5,422.161 242.5,437.5 C242.5,455.421 257.079,470 275,470 C292.921,470 307.5,455.421 307.5,437.5 C307.5,422.161 296.815,409.279 282.5,405.883 L282.5,405.883 Z M275,455 C265.351,455 257.5,447.149 257.5,437.5 C257.5,427.851 265.351,420 275,420 C284.649,420 292.5,427.851 292.5,437.5 C292.5,447.149 284.649,455 275,455 Z" id="Shape"></path>
            <path d="M410,355 C394.661,355 381.779,365.685 378.383,380 L362.5,380 L362.5,285.675 C362.5,281.532 359.143,278.175 355,278.175 L305,278.175 C300.857,278.175 297.5,281.532 297.5,285.675 C297.5,289.818 300.857,293.175 305,293.175 L347.5,293.175 L347.5,387.5 C347.5,391.643 350.857,395 355,395 L378.383,395 C381.779,409.315 394.661,420 410,420 C427.921,420 442.5,405.421 442.5,387.5 C442.5,369.579 427.921,355 410,355 Z M410,405 C400.351,405 392.5,397.149 392.5,387.5 C392.5,377.851 400.351,370 410,370 C419.649,370 427.5,377.851 427.5,387.5 C427.5,397.149 419.649,405 410,405 Z" id="Shape"></path>
            <path d="M452.141,161.557 C442.033,149.007 428.304,139.709 413.028,134.965 C411.308,99.462 396.578,66.337 371.188,41.159 C344.422,14.617 308.922,0 271.226,0 C221.725,0 175.92,25.812 150.16,67.787 C143.896,65.812 137.385,64.815 130.726,64.815 C100.089,64.815 73.743,86.441 67.39,115.92 C28.044,126.127 0,161.988 0,203.101 C0,252.768 40.406,293.175 90.073,293.175 L107.5,293.175 L107.5,380 L91.617,380 C88.221,365.685 75.339,355 60,355 C42.079,355 27.5,369.579 27.5,387.5 C27.5,405.421 42.079,420 60,420 C75.339,420 88.221,409.315 91.617,395 L115,395 C119.143,395 122.5,391.643 122.5,387.5 L122.5,285.675 C122.5,281.532 119.143,278.175 115,278.175 L90.073,278.175 C48.678,278.175 15,244.497 15,203.101 C15,167.378 40.395,136.413 75.383,129.474 C78.538,128.849 80.944,126.281 81.361,123.091 C84.59,98.42 105.812,79.816 130.726,79.816 C137.58,79.816 144.227,81.189 150.482,83.896 C154.028,85.431 158.157,84.021 160.025,80.642 C182.409,40.152 225.019,15 271.226,15 C340.61,15 397.566,71.438 398.192,140.812 C398.223,144.278 400.625,147.27 404.001,148.051 C434.029,155 455.001,181.402 455.001,212.254 C455.001,248.603 425.43,278.175 389.081,278.175 L385,278.175 C380.857,278.175 377.5,281.532 377.5,285.675 C377.5,289.818 380.857,293.175 385,293.175 L389.08,293.175 C433.699,293.175 470,256.874 470,212.254 C470,193.859 463.657,175.854 452.141,161.557 Z M60,405 C50.351,405 42.5,397.149 42.5,387.5 C42.5,377.851 50.351,370 60,370 C69.649,370 77.5,377.851 77.5,387.5 C77.5,397.149 69.649,405 60,405 Z" id="Shape"></path>
            <path d="M365.692,148.605 L365.761,148.605 C369.903,148.567 373.23,145.179 373.193,141.037 C373.081,128.683 370.749,116.594 366.262,105.106 C364.754,101.248 360.406,99.341 356.547,100.848 C352.688,102.355 350.782,106.704 352.289,110.563 C356.111,120.347 358.097,130.646 358.192,141.173 C358.231,145.293 361.581,148.605 365.692,148.605 L365.692,148.605 Z" id="Shape"></path>
            <path d="M338.278,86.756 C339.761,88.552 341.904,89.48 344.064,89.48 C345.747,89.48 347.439,88.917 348.836,87.762 C352.029,85.124 352.48,80.397 349.842,77.203 C330.312,53.56 301.657,40 271.227,40 C267.084,40 263.727,43.357 263.727,47.5 C263.727,51.643 267.084,55 271.227,55 C297.167,55 321.606,66.574 338.278,86.756 L338.278,86.756 Z" id="Shape"></path>
        </g>
    </g>
</svg>