<?xml version="1.0" encoding="UTF-8"?>
<svg width="453px" height="251px" viewBox="0 0 453 251" version="1.1" xmlns="http://www.w3.org/2000/svg" xmlns:xlink="http://www.w3.org/1999/xlink">
    <!-- Generator: Sketch 44 (41411) - http://www.bohemiancoding.com/sketch -->
    <title>eye</title>
    <desc>Created with Sketch.</desc>
    <defs></defs>
    <g id="Page-1" stroke="none" stroke-width="1" fill="none" fill-rule="evenodd">
        <g id="eye" fill-rule="nonzero" fill="#717C89">
            <path d="M441.821,111.367 C440.918,110.224 419.263,83.072 382.455,56.029 C333.006,19.7 279.077,0.498 226.498,0.498 C173.916,0.498 119.988,19.7 70.541,56.029 C33.62,83.153 12.068,110.233 11.174,111.368 L0,125.498 L11.17,139.623 C12.068,140.762 33.62,167.844 70.541,194.967 C119.988,231.296 173.916,250.498 226.498,250.498 C279.077,250.498 333.006,231.296 382.455,194.967 C419.265,167.923 440.918,140.772 441.822,139.629 L452.995,125.498 L441.821,111.367 Z M429.909,130.206 C429.056,131.283 408.639,156.881 373.462,182.727 C326.639,217.126 275.82,235.309 226.498,235.309 C177.175,235.309 126.355,217.127 79.535,182.727 C44.251,156.807 23.939,131.287 23.088,130.207 L19.363,125.498 L23.092,120.784 C23.939,119.71 44.25,94.19 79.534,68.27 C126.354,33.87 177.174,15.687 226.497,15.687 C275.818,15.687 326.638,33.87 373.461,68.27 C408.64,94.115 429.057,119.713 429.907,120.789 L433.632,125.498 L429.909,130.206 Z" id="Shape"></path>
            <path d="M226.498,41.165 C179.996,41.165 142.163,78.996 142.163,125.498 C142.163,172 179.996,209.831 226.498,209.831 C273,209.831 310.832,171.999 310.832,125.498 C310.832,78.997 273,41.165 226.498,41.165 Z M226.498,194.642 C188.372,194.642 157.352,163.624 157.352,125.497 C157.352,87.37 188.372,56.352 226.498,56.352 C264.624,56.352 295.644,87.37 295.644,125.497 C295.644,163.624 264.624,194.642 226.498,194.642 Z" id="Shape"></path>
            <path d="M226.498,73.113 L226.498,88.302 C247.008,88.302 263.693,104.988 263.693,125.497 L278.881,125.497 C278.883,96.613 255.384,73.113 226.498,73.113 Z" id="Shape"></path>
        </g>
    </g>
</svg>