<?xml version="1.0" encoding="UTF-8"?>
<svg width="470px" height="470px" viewBox="0 0 470 470" version="1.1" xmlns="http://www.w3.org/2000/svg" xmlns:xlink="http://www.w3.org/1999/xlink">
    <!-- Generator: Sketch 44 (41411) - http://www.bohemiancoding.com/sketch -->
    <title>sharing-archives</title>
    <desc>Created with Sketch.</desc>
    <defs></defs>
    <g id="Page-1" stroke="none" stroke-width="1" fill="none" fill-rule="evenodd">
        <g id="sharing-archives" fill-rule="nonzero" fill="#717C89">
            <path d="M462.5,445 L292.853,445 L292.853,430 L462.5,430 C466.643,430 470,426.643 470,422.5 C470,418.357 466.643,415 462.5,415 L292.755,415 C292.199,411.407 289.102,408.654 285.353,408.654 L265.673,408.654 L265.673,386.154 C265.673,382.011 262.316,378.654 258.173,378.654 C254.03,378.654 250.673,382.011 250.673,386.154 L250.673,416.154 C250.673,420.297 254.03,423.654 258.173,423.654 L277.853,423.654 L277.853,455 L192.148,455 L192.148,423.654 L228.173,423.654 C232.316,423.654 235.673,420.297 235.673,416.154 C235.673,412.011 232.316,408.654 228.173,408.654 L219.327,408.654 L219.327,386.154 C219.327,382.011 215.97,378.654 211.827,378.654 C207.684,378.654 204.327,382.011 204.327,386.154 L204.327,408.654 L184.647,408.654 C180.898,408.654 177.801,411.407 177.245,415 L7.5,415 C3.357,415 0,418.357 0,422.5 C0,426.643 3.357,430 7.5,430 L177.147,430 L177.147,445 L7.5,445 C3.357,445 0,448.357 0,452.5 C0,456.643 3.357,460 7.5,460 L177.147,460 L177.147,462.5 C177.147,466.643 180.504,470 184.647,470 L285.352,470 C289.495,470 292.852,466.643 292.852,462.5 L292.852,460 L462.5,460 C466.643,460 470,456.643 470,452.5 C470,448.357 466.643,445 462.5,445 Z" id="Shape"></path>
            <path d="M103.212,363.75 L372,363.75 C376.143,363.75 379.5,360.393 379.5,356.25 L379.5,87.5 C379.5,87.249 379.487,86.999 379.462,86.751 C379.444,86.567 379.412,86.387 379.381,86.207 C379.37,86.146 379.365,86.084 379.353,86.024 C379.31,85.806 379.254,85.593 379.192,85.382 C379.185,85.36 379.181,85.337 379.175,85.315 C379.109,85.099 379.032,84.889 378.948,84.682 C378.941,84.664 378.935,84.644 378.928,84.626 C378.847,84.431 378.755,84.241 378.658,84.054 C378.642,84.023 378.63,83.991 378.613,83.961 C378.522,83.792 378.421,83.629 378.318,83.468 C378.289,83.422 378.264,83.374 378.234,83.329 C378.135,83.181 378.026,83.041 377.917,82.901 C377.875,82.848 377.838,82.791 377.795,82.739 C377.675,82.593 377.545,82.455 377.414,82.318 C377.376,82.278 377.343,82.235 377.304,82.196 L297.304,2.196 C297.265,2.157 297.222,2.124 297.182,2.086 C297.045,1.955 296.907,1.825 296.761,1.705 C296.709,1.662 296.652,1.625 296.599,1.584 C296.459,1.475 296.318,1.366 296.171,1.267 C296.126,1.237 296.078,1.212 296.033,1.183 C295.872,1.08 295.709,0.979 295.54,0.888 C295.51,0.872 295.477,0.859 295.447,0.843 C295.26,0.746 295.071,0.654 294.875,0.573 C294.857,0.565 294.837,0.56 294.819,0.553 C294.612,0.469 294.402,0.392 294.186,0.326 C294.164,0.319 294.141,0.315 294.119,0.309 C293.908,0.247 293.695,0.191 293.477,0.148 C293.417,0.136 293.355,0.131 293.294,0.12 C293.114,0.089 292.934,0.057 292.75,0.039 C292.501,0.013 292.251,0 292,0 L103.212,0 C99.069,0 95.712,3.357 95.712,7.5 L95.712,356.25 C95.712,360.393 99.069,363.75 103.212,363.75 Z M299.5,25.606 L353.894,80 L299.5,80 L299.5,25.606 Z M110.712,15 L284.5,15 L284.5,87.5 C284.5,91.643 287.857,95 292,95 L364.5,95 L364.5,348.75 L110.712,348.75 L110.712,15 Z" id="Shape"></path>
            <path d="M318.25,133.75 L156.962,133.75 C152.819,133.75 149.462,137.107 149.462,141.25 C149.462,145.393 152.819,148.75 156.962,148.75 L318.25,148.75 C322.393,148.75 325.75,145.393 325.75,141.25 C325.75,137.107 322.393,133.75 318.25,133.75 Z" id="Shape"></path>
            <path d="M318.25,187.5 L156.962,187.5 C152.819,187.5 149.462,190.857 149.462,195 C149.462,199.143 152.819,202.5 156.962,202.5 L318.25,202.5 C322.393,202.5 325.75,199.143 325.75,195 C325.75,190.857 322.393,187.5 318.25,187.5 Z" id="Shape"></path>
            <path d="M318.25,241.25 L156.962,241.25 C152.819,241.25 149.462,244.607 149.462,248.75 C149.462,252.893 152.819,256.25 156.962,256.25 L318.25,256.25 C322.393,256.25 325.75,252.893 325.75,248.75 C325.75,244.607 322.393,241.25 318.25,241.25 Z" id="Shape"></path>
            <path d="M237.605,295 L156.961,295 C152.818,295 149.461,298.357 149.461,302.5 C149.461,306.643 152.818,310 156.961,310 L237.605,310 C241.748,310 245.105,306.643 245.105,302.5 C245.105,298.357 241.748,295 237.605,295 Z" id="Shape"></path>
        </g>
    </g>
</svg>