<?xml version="1.0" encoding="UTF-8"?>
<svg width="60px" height="60px" viewBox="0 0 60 60" version="1.1" xmlns="http://www.w3.org/2000/svg" xmlns:xlink="http://www.w3.org/1999/xlink">
    <!-- Generator: Sketch 44 (41411) - http://www.bohemiancoding.com/sketch -->
    <title>human-resources</title>
    <desc>Created with Sketch.</desc>
    <defs></defs>
    <g id="Page-1" stroke="none" stroke-width="1" fill="none" fill-rule="evenodd">
        <g id="human-resources" fill-rule="nonzero" fill="#717C89">
            <path d="M2,21 C2,18.2 4.2,16 7,16 L8.3,16 L11.1,23.4 C11.2,23.7 11.6,24 12,24 C12.4,24 12.8,23.7 13.1,23.4 L15.9,16 L17,16 C19.8,16 22,18.2 22,21 L22,35 L24,35 L24,21 C24,17.1 20.9,14 17,14 L7,14 C3.1,14 0,17.1 0,21 L0,35 L2,35 L2,21 L2,21 Z M12.1,20.2 L10.5,16 L13.7,16 L12.1,20.2 Z" id="Shape"></path>
            <rect id="Rectangle-path" x="11" y="26" width="2" height="2"></rect>
            <rect id="Rectangle-path" x="11" y="30" width="2" height="2"></rect>
            <path d="M11,13 L13,13 C15.8,13 18,10.8 18,8 L18,5 C18,2.2 15.8,0 13,0 L11,0 C8.2,0 6,2.2 6,5 L6,8 C6,10.8 8.2,13 11,13 Z M8,5 C8,3.3 9.3,2 11,2 L13,2 C14.7,2 16,3.3 16,5 L16,8 C16,9.7 14.7,11 13,11 L11,11 C9.3,11 8,9.7 8,8 L8,5 Z" id="Shape"></path>
            <path d="M53,14 L43,14 C39.1,14 36,17.1 36,21 L36,35 L38,35 L38,21 C38,18.2 40.2,16 43,16 L44.3,16 L47.1,23.4 C47.2,23.7 47.6,24 48,24 C48.4,24 48.8,23.7 49.1,23.4 L51.9,16 L53,16 C55.8,16 58,18.2 58,21 L58,35 L60,35 L60,21 C60,17.1 56.9,14 53,14 Z M48.1,20.2 L46.5,16 L49.7,16 L48.1,20.2 Z" id="Shape"></path>
            <rect id="Rectangle-path" x="47" y="26" width="2" height="2"></rect>
            <rect id="Rectangle-path" x="47" y="30" width="2" height="2"></rect>
            <path d="M47,13 L49,13 C51.8,13 54,10.8 54,8 L54,5 C54,2.2 51.8,0 49,0 L47,0 C44.2,0 42,2.2 42,5 L42,8 C42,10.8 44.2,13 47,13 Z M44,5 C44,3.3 45.3,2 47,2 L49,2 C50.7,2 52,3.3 52,5 L52,8 C52,9.7 50.7,11 49,11 L47,11 C45.3,11 44,9.7 44,8 L44,5 Z" id="Shape"></path>
            <path d="M29.1,23.4 C29.2,23.7 29.6,24 30,24 C30.4,24 30.8,23.7 31.1,23.4 L33.9,16 L36,16 L36,14 L24,14 L24,16 L26.3,16 L29.1,23.4 Z M30.1,20.2 L28.5,16 L31.7,16 L30.1,20.2 Z" id="Shape"></path>
            <rect id="Rectangle-path" x="29" y="26" width="2" height="2"></rect>
            <rect id="Rectangle-path" x="29" y="30" width="2" height="2"></rect>
            <path d="M29,13 L31,13 C33.8,13 36,10.8 36,8 L36,5 C36,2.2 33.8,0 31,0 L29,0 C26.2,0 24,2.2 24,5 L24,8 C24,10.8 26.2,13 29,13 Z M26,5 C26,3.3 27.3,2 29,2 L31,2 C32.7,2 34,3.3 34,5 L34,8 C34,9.7 32.7,11 31,11 L29,11 C27.3,11 26,9.7 26,8 L26,5 Z" id="Shape"></path>
            <path d="M59,55 L55,55 L55,22 L53,22 L53,55 L49,55 L49,36 L47,36 L47,55 L43,55 L43,22 L41,22 L41,55 L37,55 L37,40 L35,40 L35,55 L31,55 L31,36 L29,36 L29,55 L25,55 L25,40 L23,40 L23,55 L19,55 L19,22 L17,22 L17,55 L13,55 L13,36 L11,36 L11,55 L7,55 L7,22 L5,22 L5,55 L1,55 C0.4,55 0,55.4 0,56 L0,60 L2,60 L2,57 L6,57 L12,57 L18,57 L24,57 L30,57 L36,57 L42,57 L48,57 L54,57 L58,57 L58,60 L60,60 L60,56 C60,55.4 59.6,55 59,55 Z" id="Shape"></path>
        </g>
    </g>
</svg>