<?xml version="1.0" encoding="UTF-8"?>
<svg width="512px" height="512px" viewBox="0 0 512 512" version="1.1" xmlns="http://www.w3.org/2000/svg" xmlns:xlink="http://www.w3.org/1999/xlink">
    <!-- Generator: Sketch 44 (41411) - http://www.bohemiancoding.com/sketch -->
    <title>ads</title>
    <desc>Created with Sketch.</desc>
    <defs></defs>
    <g id="Page-1" stroke="none" stroke-width="1" fill="none" fill-rule="evenodd">
        <g id="ads" fill-rule="nonzero" fill="#717C89">
            <path d="M460.8,32.337 L210.189,32.337 L210.189,29.642 C210.189,13.298 196.891,0 180.547,0 L94.316,0 C77.972,0 64.674,13.298 64.674,29.642 L64.674,32.337 L51.2,32.337 C22.969,32.337 0,55.306 0,83.537 L0,105.095 L0,406.906 C0,435.137 22.969,458.106 51.2,458.106 L237.137,458.106 L237.137,482.359 C237.137,498.703 250.435,512.001 266.779,512.001 L385.347,512.001 C401.691,512.001 414.989,498.703 414.989,482.359 L414.989,458.106 L460.8,458.106 C489.031,458.106 512,435.137 512,406.906 L512,105.095 L512,83.537 C512,55.306 489.031,32.337 460.8,32.337 Z M80.842,29.642 C80.842,22.212 86.886,16.168 94.316,16.168 L180.548,16.168 C187.978,16.168 194.022,22.212 194.022,29.642 L194.022,97.01 L80.842,97.01 L80.842,29.642 Z M16.168,83.537 C16.168,64.22 31.883,48.505 51.2,48.505 L64.674,48.505 L64.674,97.01 L16.168,97.01 L16.168,83.537 Z M237.137,267.538 L237.137,388.042 L83.537,388.042 C76.107,388.042 70.063,381.998 70.063,374.568 L70.063,191.326 C70.063,183.896 76.107,177.852 83.537,177.852 L291.032,177.852 L291.032,215.743 L250.337,242.873 C242.071,248.384 237.137,257.604 237.137,267.538 Z M398.821,482.358 C398.821,489.788 392.777,495.832 385.347,495.832 L266.779,495.832 C259.349,495.832 253.305,489.788 253.305,482.358 L253.305,267.538 C253.305,263.023 255.548,258.832 259.305,256.327 L291.032,235.177 L291.032,239.832 C291.032,247.228 293.342,254.091 297.27,259.753 C296.72,262.007 296.422,264.359 296.422,266.78 C296.422,283.124 309.72,296.422 326.064,296.422 C342.408,296.422 355.706,283.124 355.706,266.78 C355.706,250.436 342.408,237.138 326.064,237.138 C319.08,237.138 312.656,239.572 307.585,243.628 C307.334,242.402 307.201,241.133 307.201,239.833 L307.201,224.4 L318.591,216.806 C320.861,215.293 323.462,214.536 326.064,214.536 C328.665,214.536 331.268,215.293 333.538,216.806 L392.822,256.328 C396.578,258.833 398.822,263.024 398.822,267.539 L398.822,482.358 L398.821,482.358 Z M326.063,258.695 C322.912,258.695 319.946,257.909 317.332,256.537 C319.685,254.527 322.732,253.305 326.063,253.305 C333.493,253.305 339.537,259.349 339.537,266.779 C339.537,274.209 333.493,280.253 326.063,280.253 C320.766,280.253 316.186,277.173 313.986,272.717 C317.753,274.104 321.82,274.863 326.063,274.863 C330.529,274.863 334.147,271.245 334.147,266.779 C334.147,262.313 330.529,258.695 326.063,258.695 Z M401.79,242.873 L342.507,203.351 C332.517,196.69 319.609,196.691 309.622,203.351 L307.201,204.966 L307.201,177.853 L428.464,177.853 C435.894,177.853 441.938,183.897 441.938,191.327 L441.938,374.569 C441.938,381.999 435.894,388.043 428.464,388.043 L414.99,388.043 L414.99,267.538 C414.989,257.604 410.055,248.384 401.79,242.873 Z M309.046,161.684 C312.08,155.322 318.557,150.905 326.063,150.905 C333.569,150.905 340.044,155.322 343.08,161.684 L309.046,161.684 Z M495.832,406.905 C495.832,426.222 480.117,441.937 460.8,441.937 L414.989,441.937 L414.989,404.211 L428.463,404.211 C444.807,404.211 458.105,390.913 458.105,374.569 L458.105,191.326 C458.105,174.982 444.807,161.684 428.463,161.684 L360.143,161.684 C356.482,146.254 342.597,134.737 326.063,134.737 C309.529,134.737 295.644,146.254 291.983,161.684 L83.537,161.684 C67.193,161.684 53.895,174.982 53.895,191.326 L53.895,374.568 C53.895,390.912 67.193,404.21 83.537,404.21 L237.137,404.21 L237.137,441.936 L51.2,441.936 C31.883,441.936 16.168,426.221 16.168,406.904 L16.168,113.179 L495.831,113.179 L495.831,406.905 L495.832,406.905 Z M495.832,97.011 L210.189,97.011 L210.189,48.505 L460.8,48.505 C480.117,48.505 495.832,64.22 495.832,83.537 L495.832,97.011 Z" id="Shape"></path>
            <path d="M417.684,64.135 C413.218,64.135 409.6,67.753 409.6,72.219 L409.6,73.297 C409.6,77.763 413.219,81.381 417.684,81.381 C422.149,81.381 425.768,77.763 425.768,73.297 L425.768,72.219 C425.768,67.753 422.15,64.135 417.684,64.135 Z" id="Shape"></path>
            <path d="M385.347,64.135 C380.881,64.135 377.263,67.753 377.263,72.219 L377.263,73.297 C377.263,77.763 380.881,81.381 385.347,81.381 C389.813,81.381 393.431,77.763 393.431,73.297 L393.431,72.219 C393.432,67.753 389.813,64.135 385.347,64.135 Z" id="Shape"></path>
            <path d="M450.021,64.135 C445.555,64.135 441.937,67.753 441.937,72.219 L441.937,73.297 C441.937,77.763 445.555,81.381 450.021,81.381 C454.487,81.381 458.105,77.763 458.105,73.297 L458.105,72.219 C458.105,67.753 454.487,64.135 450.021,64.135 Z" id="Shape"></path>
        </g>
    </g>
</svg>