<?xml version="1.0" encoding="UTF-8"?>
<svg width="392px" height="470px" viewBox="0 0 392 470" version="1.1" xmlns="http://www.w3.org/2000/svg" xmlns:xlink="http://www.w3.org/1999/xlink">
    <!-- Generator: Sketch 44 (41411) - http://www.bohemiancoding.com/sketch -->
    <title>quality</title>
    <desc>Created with Sketch.</desc>
    <defs></defs>
    <g id="Page-1" stroke="none" stroke-width="1" fill="none" fill-rule="evenodd">
        <g id="quality" fill-rule="nonzero" fill="#262626">
            <path d="M390.591,418.378 L328.368,268.16 C326.783,264.334 322.396,262.515 318.569,264.101 C314.742,265.687 312.924,270.074 314.51,273.9 L370.761,409.701 L319.452,394.834 C316.084,393.857 312.487,395.347 310.796,398.42 L285.027,445.213 L224.67,299.497 C294.333,286.063 347.117,224.644 347.117,151.119 C347.118,67.792 279.327,-8.52651283e-14 196,-8.52651283e-14 C112.673,-8.52651283e-14 44.881,67.792 44.881,151.119 C44.881,184.87 56.005,216.07 74.777,241.252 L1.409,418.378 C0.306,421.042 0.827,424.102 2.75,426.25 C4.672,428.398 7.657,429.254 10.426,428.452 L70.959,410.911 L101.359,466.118 C102.683,468.521 105.206,470 107.927,470 C108.065,470 108.204,469.996 108.343,469.989 C111.222,469.829 113.754,468.034 114.858,465.37 L172.994,325.017 C174.579,321.19 172.762,316.803 168.935,315.218 C165.108,313.633 160.721,315.45 159.136,319.277 L106.971,445.213 L81.204,398.42 C79.512,395.347 75.913,393.857 72.547,394.834 L21.239,409.701 L85.636,254.232 C113.234,283.752 152.496,302.237 196,302.237 C200.491,302.237 204.933,302.028 209.325,301.643 L277.143,465.37 C278.246,468.034 280.779,469.829 283.657,469.988 C283.797,469.996 283.935,470 284.074,470 C286.795,470 289.318,468.521 290.641,466.118 L321.042,410.911 L381.575,428.452 C384.346,429.255 387.328,428.398 389.251,426.25 C391.174,424.102 391.694,421.042 390.591,418.378 Z M59.881,151.119 C59.881,76.063 120.944,15 196,15 C271.056,15 332.118,76.063 332.118,151.119 C332.118,226.175 271.056,287.237 196,287.237 C120.944,287.237 59.881,226.175 59.881,151.119 Z" id="Shape"></path>
            <path d="M282.659,122.961 C281.796,120.303 279.524,118.345 276.767,117.882 L226.3,109.413 L202.651,64.034 C201.359,61.555 198.796,60 196,60 C193.205,60 190.641,61.555 189.349,64.034 L165.699,109.413 L115.233,117.882 C112.476,118.344 110.205,120.302 109.341,122.961 C108.477,125.62 109.163,128.538 111.122,130.533 L146.972,167.048 L139.432,217.662 C139.02,220.427 140.18,223.191 142.442,224.835 C144.702,226.477 147.691,226.726 150.193,225.481 L196,202.669 L241.806,225.481 C242.865,226.008 244.009,226.268 245.149,226.268 C246.706,226.268 248.253,225.784 249.558,224.836 C251.82,223.192 252.98,220.428 252.568,217.663 L245.029,167.049 L280.879,130.533 C282.837,128.538 283.523,125.62 282.659,122.961 Z M231.708,159.205 C230.06,160.884 229.295,163.238 229.642,165.564 L235.612,205.638 L199.344,187.577 C198.29,187.053 197.146,186.79 196,186.79 C194.855,186.79 193.709,187.052 192.657,187.577 L156.389,205.638 L162.359,165.564 C162.706,163.238 161.941,160.883 160.293,159.205 L131.908,130.293 L171.865,123.587 C174.185,123.198 176.188,121.743 177.275,119.657 L196,83.728 L214.725,119.658 C215.813,121.744 217.815,123.199 220.135,123.588 L260.093,130.294 L231.708,159.205 L231.708,159.205 Z" id="Shape"></path>
            <path d="M309.612,158.684 C305.505,158.135 301.735,161.027 301.192,165.134 C294.235,217.641 249.012,257.238 196,257.238 C137.486,257.238 89.881,209.634 89.881,151.119 C89.881,92.604 137.486,45 196,45 C249.013,45 294.235,84.596 301.192,137.104 C301.735,141.211 305.512,144.105 309.612,143.554 C313.717,143.01 316.606,139.24 316.061,135.134 C308.121,75.198 256.506,30 196,30 C129.215,30 74.881,84.333 74.881,151.119 C74.881,217.905 129.215,272.237 196,272.237 C256.506,272.237 308.121,227.039 316.062,167.103 C316.606,162.998 313.718,159.228 309.612,158.684 L309.612,158.684 Z" id="Shape"></path>
        </g>
    </g>
</svg>